<svg width="40" height="46" viewBox="0 0 40 46" fill="none" xmlns="http://www.w3.org/2000/svg">
<path d="M23.4968 6.01307V2.00436L19.9748 0L16.5031 2.00436V6.01307L19.9748 8.01743L23.4968 6.01307Z" fill="#181717"/>
<path d="M31.7988 10.8235V6.81481L28.3271 4.81046L24.8554 6.81481V10.8235L28.3271 12.8279L31.7988 10.8235Z" fill="#181717"/>
<path d="M40 15.4837V11.4749L36.5283 9.47058L33.0063 11.4749V15.4837L36.5283 17.488L40 15.4837Z" fill="#181717"/>
<path d="M40 25.0043V20.9956L36.5283 18.9913L33.0063 20.9956V25.0043L36.5283 27.0087L40 25.0043Z" fill="#181717"/>
<path d="M30.9937 19.9935V16.9368L28.3271 15.4336L25.6604 16.9368V19.9935L28.3271 21.5469L30.9937 19.9935Z" fill="#181717"/>
<path d="M30.9937 29.5142V26.4575L28.3271 24.9041L25.6604 26.4575V29.5142L28.3271 31.0174L30.9937 29.5142Z" fill="#181717"/>
<path d="M12.9308 19.6928V17.2876L10.8176 16.085L8.75473 17.2876V19.6928L10.8176 20.8453L12.9308 19.6928Z" fill="#181717"/>
<path d="M12.9308 29.1634V26.7582L10.8176 25.5555L8.75473 26.7582V29.1634L10.8176 30.366L12.9308 29.1634Z" fill="#181717"/>
<path d="M3.4717 24.0022V21.9978L1.76101 20.9956L0 21.9978V24.0022L1.76101 25.0044L3.4717 24.0022Z" fill="#181717"/>
<path d="M40 34.4749V30.4662L36.5283 28.4619L33.0063 30.4662V34.4749L36.5283 36.4793L40 34.4749Z" fill="#181717"/>
<path d="M22.9434 15.1329V11.8758L20.1258 10.2222L17.2579 11.8758V15.1329L20.1258 16.7865L22.9434 15.1329Z" fill="#181717"/>
<path d="M22.9434 34.1242V30.8671L20.1258 29.2135L17.2579 30.8671V34.1242L20.1258 35.7778L22.9434 34.1242Z" fill="#181717"/>
<path d="M22.4906 24.3529V21.597L20.1258 20.244L17.7107 21.597V24.3529L20.1258 25.756L22.4906 24.3529Z" fill="#181717"/>
<path d="M31.7988 39.1852V35.1765L28.3271 33.1721L24.8554 35.1765V39.1852L28.3271 41.1896L31.7988 39.1852Z" fill="#181717"/>
<path d="M13.6856 10.2222V6.91504L10.8176 5.26144L7.94971 6.91504V10.2222L10.8176 11.8257L13.6856 10.2222Z" fill="#181717"/>
<path d="M3.22013 12.9782V11.1242L1.61006 10.1721L0 11.1242V12.9782L1.61006 13.9303L3.22013 12.9782Z" fill="#181717"/>
<path d="M23.4968 43.9957V39.9869L19.9748 37.9826L16.5031 39.9869V43.9957L19.9748 46L23.4968 43.9957Z" fill="#181717"/>
<path d="M13.6856 39.085V35.7778L10.8176 34.1242L7.94971 35.7778V39.085L10.8176 40.7386L13.6856 39.085Z" fill="#181717"/>
<path d="M4.5283 34.8257V32.22L2.26415 30.9172L0 32.22V34.8257L2.26415 36.1285L4.5283 34.8257Z" fill="#181717"/>
</svg>
